<?xml version="1.0" encoding="UTF-8" standalone="no"?>
<!-- Created with Inkscape (http://www.inkscape.org/) -->

<svg
   xmlns:dc="http://purl.org/dc/elements/1.1/"
   xmlns:cc="http://creativecommons.org/ns#"
   xmlns:rdf="http://www.w3.org/1999/02/22-rdf-syntax-ns#"
   xmlns:svg="http://www.w3.org/2000/svg"
   xmlns="http://www.w3.org/2000/svg"
   xmlns:sodipodi="http://sodipodi.sourceforge.net/DTD/sodipodi-0.dtd"
   xmlns:inkscape="http://www.inkscape.org/namespaces/inkscape"
   width="145.79494mm"
   height="35.337372mm"
   viewBox="0 0 516.59623 125.21116"
   id="svg2"
   version="1.1"
   inkscape:version="0.91 r13725"
   sodipodi:docname="PAIM_logo.svg">
  <defs
     id="defs4" />
  <sodipodi:namedview
     id="base"
     pagecolor="#ffffff"
     bordercolor="#666666"
     borderopacity="1.0"
     inkscape:pageopacity="0.0"
     inkscape:pageshadow="2"
     inkscape:zoom="1.4142136"
     inkscape:cx="271.53991"
     inkscape:cy="117.91648"
     inkscape:document-units="px"
     inkscape:current-layer="layer1"
     showgrid="false"
     fit-margin-left="1"
     fit-margin-top="1"
     fit-margin-right="1"
     fit-margin-bottom="1"
     inkscape:window-width="1280"
     inkscape:window-height="971"
     inkscape:window-x="0"
     inkscape:window-y="24"
     inkscape:window-maximized="1"
     showguides="true"
     inkscape:guide-bbox="true" />
  <metadata
     id="metadata7">
    <rdf:RDF>
      <cc:Work
         rdf:about="">
        <dc:format>image/svg+xml</dc:format>
        <dc:type
           rdf:resource="http://purl.org/dc/dcmitype/StillImage" />
        <dc:title></dc:title>
      </cc:Work>
    </rdf:RDF>
  </metadata>
  <g
     inkscape:label="Layer 1"
     inkscape:groupmode="layer"
     id="layer1"
     transform="translate(383.3145,-109.87281)">
    <path
       style="font-variant:normal;font-weight:bold;font-stretch:normal;font-size:medium;font-family:Interstate;-inkscape-font-specification:Interstate-Bold;writing-mode:lr-tb;fill:#231f20;fill-opacity:1;fill-rule:nonzero;stroke:none"
       d="m -121.08136,137.69854 q 0,11.64225 -7.09623,18.07321 -6.98535,6.32009 -18.62761,6.32009 l -20.29079,0 0,28.93932 -11.4205,0 0,-77.61504 32.48744,0 q 11.08786,0 17.85146,6.09832 7.09623,6.54184 7.09623,18.1841 z m -11.86401,0 q 0,-6.32009 -3.659,-9.75732 -3.54811,-3.54812 -9.64644,-3.54812 l -20.84518,0 0,26.72175 20.84518,0 q 13.30544,0 13.30544,-13.41631 z"
       id="path3589"
       inkscape:connector-curvature="0" />
    <path
       style="font-variant:normal;font-weight:bold;font-stretch:normal;font-size:medium;font-family:Interstate;-inkscape-font-specification:Interstate-Bold;writing-mode:lr-tb;fill:#231f20;fill-opacity:1;fill-rule:nonzero;stroke:none"
       d="m -27.791509,191.03116 -12.418407,0 -6.541839,-18.40585 -31.046017,0 -6.430961,18.40585 -12.085767,0 27.941412,-77.61504 12.307528,0 28.274051,77.61504 z m -22.508362,-28.82845 -6.209204,-17.85146 q -4.767781,-13.74895 -5.876567,-17.85146 -1.995816,7.53975 -5.65481,17.96234 l -6.209204,17.74058 23.949785,0 z"
       id="path3591"
       inkscape:connector-curvature="0" />
    <path
       style="font-variant:normal;font-weight:bold;font-stretch:normal;font-size:medium;font-family:Interstate;-inkscape-font-specification:Interstate-Bold;writing-mode:lr-tb;fill:#231f20;fill-opacity:1;fill-rule:nonzero;stroke:none"
       d="m 19.327756,191.03116 -11.642256,0 0,-77.61504 11.642256,0 0,77.61504 z"
       id="path3593"
       inkscape:connector-curvature="0" />
    <path
       style="font-variant:normal;font-weight:bold;font-stretch:normal;font-size:medium;font-family:Interstate;-inkscape-font-specification:Interstate-Bold;writing-mode:lr-tb;fill:#231f20;fill-opacity:1;fill-rule:nonzero;stroke:none"
       d="m 129.69553,191.03116 -11.4205,0 0,-41.0251 q 0,-9.20292 0.22176,-13.63807 -1.55231,3.88076 -4.98954,12.19665 l -18.849375,43.68618 -18.62761,-43.68618 q -1.774058,-4.21339 -4.989538,-12.19665 0.221757,4.43515 0.221757,13.63807 l 0,41.0251 -10.976984,0 0,-77.61504 11.974892,0 17.407945,41.35773 q 2.217573,4.98953 5.322174,13.30543 1.441422,-4.10251 5.211299,-13.30543 l 17.07531,-41.35773 12.41841,0 0,77.61504 z"
       id="path3595"
       inkscape:connector-curvature="0" />
    <g
       id="g3371"
       transform="matrix(1.25,0,0,-1.25,-202.24232,189.18854)">
      <path
         d="m 0,0 -92.976,0 -47.076,-33.191 92.975,0 L 0,0 Z"
         style="fill:none;stroke:#231f20;stroke-width:1.25;stroke-linecap:butt;stroke-linejoin:miter;stroke-miterlimit:10;stroke-dasharray:none;stroke-opacity:1"
         id="path3373"
         inkscape:connector-curvature="0" />
    </g>
    <g
       id="g3375"
       transform="matrix(1.25,0,0,-1.25,-202.24232,170.70592)">
      <path
         d="m 0,0 -92.976,0 -47.076,-33.192 92.975,0 L 0,0 Z"
         style="fill:none;stroke:#231f20;stroke-width:1.25;stroke-linecap:butt;stroke-linejoin:miter;stroke-miterlimit:10;stroke-dasharray:none;stroke-opacity:1"
         id="path3377"
         inkscape:connector-curvature="0" />
    </g>
    <g
       id="g3379"
       transform="matrix(1.25,0,0,-1.25,-202.24232,152.22442)">
      <path
         d="m 0,0 -92.976,0 -47.076,-33.193 92.975,0 L 0,0 Z"
         style="fill:none;stroke:#231f20;stroke-width:1.25;stroke-linecap:butt;stroke-linejoin:miter;stroke-miterlimit:10;stroke-dasharray:none;stroke-opacity:1"
         id="path3381"
         inkscape:connector-curvature="0" />
    </g>
    <g
       id="g3383"
       transform="matrix(1.25,0,0,-1.25,-202.24232,133.74354)">
      <path
         d="m 0,0 -92.976,0 -47.076,-33.193 92.975,0 L 0,0 Z"
         style="fill:none;stroke:#231f20;stroke-width:1.25;stroke-linecap:butt;stroke-linejoin:miter;stroke-miterlimit:10;stroke-dasharray:none;stroke-opacity:1"
         id="path3385"
         inkscape:connector-curvature="0" />
    </g>
    <g
       id="g3387"
       transform="matrix(1.25,0,0,-1.25,-202.24232,115.26404)">
      <path
         d="m 0,0 -92.976,0 -47.076,-33.194 92.975,0 L 0,0 Z"
         style="fill:none;stroke:#231f20;stroke-width:1.25;stroke-linecap:butt;stroke-linejoin:miter;stroke-miterlimit:10;stroke-dasharray:none;stroke-opacity:1"
         id="path3389"
         inkscape:connector-curvature="0" />
    </g>
    <g
       id="text3391"
       style="font-variant:normal;font-weight:500;font-stretch:normal;font-size:15.36874962px;font-family:'Interstate Light';-inkscape-font-specification:Interstate-Light;writing-mode:lr-tb;fill:#231f20;fill-opacity:1;fill-rule:nonzero;stroke:none">
      <path
         inkscape:connector-curvature="0"
         id="path3598"
         d="m -176.8731,202.92237 0,4.2099 1.90608,0 q 1.05811,0 1.63593,-0.54782 0.57783,-0.54781 0.57783,-1.56088 0,-1.00558 -0.57783,-1.55339 -0.57782,-0.54781 -1.63593,-0.54781 l -1.90608,0 z m -1.51586,-1.24571 3.42194,0 q 1.88358,0 2.84412,0.85549 0.96805,0.84798 0.96805,2.49142 0,1.65844 -0.96805,2.50642 -0.96054,0.84799 -2.84412,0.84799 l -1.90608,0 0,4.50256 -1.51586,0 0,-11.20388 z" />
      <path
         inkscape:connector-curvature="0"
         id="path3600"
         d="m -159.19795,207.62755 q 0.48778,0.16509 0.94554,0.7054 0.46526,0.54031 0.93053,1.48585 l 1.53837,3.06174 -1.62842,0 -1.43332,-2.87414 q -0.55531,-1.12564 -1.08061,-1.49335 -0.5178,-0.36771 -1.41831,-0.36771 l -1.65094,0 0,4.7352 -1.51586,0 0,-11.20388 3.42194,0 q 1.9211,0 2.86664,0.80296 0.94553,0.80295 0.94553,2.42388 0,1.0581 -0.49528,1.756 -0.48778,0.69789 -1.42581,0.96805 z m -3.79716,-4.70518 0,3.97726 1.90608,0 q 1.09563,0 1.65094,-0.50278 0.56282,-0.51029 0.56282,-1.49335 0,-0.98306 -0.56282,-1.47834 -0.55531,-0.50279 -1.65094,-0.50279 l -1.90608,0 z" />
      <path
         inkscape:connector-curvature="0"
         id="path3602"
         d="m -145.5936,202.70475 q -1.65094,0 -2.6265,1.2307 -0.96805,1.2307 -0.96805,3.35441 0,2.1162 0.96805,3.3469 0.97556,1.2307 2.6265,1.2307 1.65094,0 2.61148,-1.2307 0.96805,-1.2307 0.96805,-3.3469 0,-2.12371 -0.96805,-3.35441 -0.96054,-1.2307 -2.61148,-1.2307 z m 0,-1.2307 q 2.35634,0 3.76714,1.5834 1.4108,1.57589 1.4108,4.23241 0,2.649 -1.4108,4.23241 -1.4108,1.57589 -3.76714,1.57589 -2.36385,0 -3.78216,-1.57589 -1.4108,-1.5759 -1.4108,-4.23241 0,-2.65652 1.4108,-4.23241 1.41831,-1.5834 3.78216,-1.5834 z" />
      <path
         inkscape:connector-curvature="0"
         id="path3604"
         d="m -126.53636,202.53965 0,1.59841 q -0.76543,-0.7129 -1.63593,-1.0656 -0.86299,-0.35271 -1.83855,-0.35271 -1.92109,0 -2.94167,1.17818 -1.02058,1.17066 -1.02058,3.39193 0,2.21376 1.02058,3.39193 1.02058,1.17066 2.94167,1.17066 0.97556,0 1.83855,-0.3527 0.8705,-0.3527 1.63593,-1.0656 l 0,1.5834 q -0.79545,0.54031 -1.68846,0.81046 -0.8855,0.27015 -1.87607,0.27015 -2.54395,0 -4.00728,-1.55338 -1.46333,-1.56089 -1.46333,-4.25492 0,-2.70154 1.46333,-4.25493 1.46333,-1.56088 4.00728,-1.56088 1.00557,0 1.89108,0.27015 0.89301,0.26265 1.67345,0.79545 z" />
      <path
         inkscape:connector-curvature="0"
         id="path3606"
         d="m -120.89446,201.67666 7.08403,0 0,1.27573 -5.56817,0 0,3.31689 5.33554,0 0,1.27572 -5.33554,0 0,4.05981 5.70325,0 0,1.27573 -7.21911,0 0,-11.20388 z" />
      <path
         inkscape:connector-curvature="0"
         id="path3608"
         d="m -100.77658,202.04437 0,1.47834 q -0.863,-0.41273 -1.62843,-0.61535 -0.76544,-0.20261 -1.47834,-0.20261 -1.23821,0 -1.91359,0.48027 -0.66788,0.48027 -0.66788,1.36578 0,0.74292 0.44275,1.12564 0.45026,0.37521 1.69597,0.60784 l 0.91552,0.18761 q 1.69596,0.32268 2.49892,1.14065 0.81046,0.81046 0.81046,2.17624 0,1.62843 -1.09562,2.4689 -1.08812,0.84048 -3.19682,0.84048 -0.79546,0 -1.69597,-0.1801 -0.89301,-0.1801 -1.85355,-0.5328 l 0,-1.56089 q 0.92302,0.51779 1.80853,0.78044 0.8855,0.26265 1.74099,0.26265 1.29824,0 2.00364,-0.51029 0.7054,-0.51029 0.7054,-1.45583 0,-0.82547 -0.51029,-1.29073 -0.50279,-0.46527 -1.65845,-0.6979 l -0.92302,-0.1801 q -1.69597,-0.33769 -2.4539,-1.0581 -0.75793,-0.72041 -0.75793,-2.00364 0,-1.48585 1.04309,-2.34134 1.0506,-0.85548 2.88915,-0.85548 0.78795,0 1.60591,0.14258 0.81797,0.14258 1.67346,0.42774 z" />
      <path
         inkscape:connector-curvature="0"
         id="path3610"
         d="m -90.26989,203.17001 -2.056171,5.57567 4.119846,0 -2.063675,-5.57567 z m -0.855487,-1.49335 1.718478,0 4.269931,11.20388 -1.575897,0 -1.020581,-2.87414 -5.050375,0 -1.020581,2.87414 -1.59841,0 4.277435,-11.20388 z" />
      <path
         inkscape:connector-curvature="0"
         id="path3612"
         d="m -79.214412,201.67666 2.258786,0 2.859128,7.62434 2.874136,-7.62434 2.258786,0 0,11.20388 -1.478342,0 0,-9.8381 -2.889145,7.68437 -1.523367,0 -2.889145,-7.68437 0,9.8381 -1.470837,0 0,-11.20388 z" />
      <path
         inkscape:connector-curvature="0"
         id="path3614"
         d="m -62.723743,201.67666 1.515863,0 0,11.20388 -1.515863,0 0,-11.20388 z" />
      <path
         inkscape:connector-curvature="0"
         id="path3616"
         d="m -54.163356,201.67666 7.084033,0 0,1.27573 -5.56817,0 0,3.31689 5.335538,0 0,1.27572 -5.335538,0 0,4.05981 5.703247,0 0,1.27573 -7.21911,0 0,-11.20388 z" />
      <path
         inkscape:connector-curvature="0"
         id="path3618"
         d="m -40.76181,201.67666 2.041162,0 4.967829,9.37284 0,-9.37284 1.470837,0 0,11.20388 -2.041162,0 -4.967828,-9.37284 0,9.37284 -1.470838,0 0,-11.20388 z" />
      <path
         inkscape:connector-curvature="0"
         id="path3620"
         d="m -27.361398,201.67666 9.477896,0 0,1.27573 -3.977264,0 0,9.92815 -1.523367,0 0,-9.92815 -3.977265,0 0,-1.27573 z" />
      <path
         inkscape:connector-curvature="0"
         id="path3622"
         d="m -7.8435045,202.70475 q -1.6509399,0 -2.6264955,1.2307 -0.968051,1.2307 -0.968051,3.35441 0,2.1162 0.968051,3.3469 0.9755556,1.2307 2.6264955,1.2307 1.6509399,0 2.6114868,-1.2307 0.9680511,-1.2307 0.9680511,-3.3469 0,-2.12371 -0.9680511,-3.35441 -0.9605469,-1.2307 -2.6114868,-1.2307 z m 0,-1.2307 q 2.3563415,0 3.7671447,1.5834 1.4108032,1.57589 1.4108032,4.23241 0,2.649 -1.4108032,4.23241 -1.4108032,1.57589 -3.7671447,1.57589 -2.3638455,0 -3.7821535,-1.57589 -1.410803,-1.5759 -1.410803,-4.23241 0,-2.65652 1.410803,-4.23241 1.418308,-1.5834 3.7821535,-1.5834 z" />
      <path
         inkscape:connector-curvature="0"
         id="path3624"
         d="m 9.6615723,201.67666 1.6284267,0 3.106769,4.60762 3.084256,-4.60762 1.628427,0 -3.962256,5.86834 0,5.33554 -1.523367,0 0,-5.33554 -3.9622557,-5.86834 z" />
      <path
         inkscape:connector-curvature="0"
         id="path3626"
         d="m 37.72105,203.17001 -2.05617,5.57567 4.119845,0 -2.063675,-5.57567 z m -0.855487,-1.49335 1.718478,0 4.269931,11.20388 -1.575897,0 -1.020581,-2.87414 -5.050375,0 -1.020581,2.87414 -1.59841,0 4.277435,-11.20388 z" />
      <path
         inkscape:connector-curvature="0"
         id="path3628"
         d="m 48.776528,201.67666 2.041162,0 4.967828,9.37284 0,-9.37284 1.470838,0 0,11.20388 -2.041162,0 -4.967829,-9.37284 0,9.37284 -1.470837,0 0,-11.20388 z" />
      <path
         inkscape:connector-curvature="0"
         id="path3630"
         d="m 67.474964,203.17001 -2.056171,5.57567 4.119846,0 -2.063675,-5.57567 z m -0.855487,-1.49335 1.718478,0 4.269931,11.20388 -1.575897,0 -1.020581,-2.87414 -5.050375,0 -1.020581,2.87414 -1.59841,0 4.277435,-11.20388 z m 1.268222,-3.04673 1.38829,0 -1.710974,1.98112 -1.148153,0 1.470837,-1.98112 z" />
      <path
         inkscape:connector-curvature="0"
         id="path3632"
         d="m 78.530438,201.67666 1.515863,0 0,9.92815 5.455606,0 0,1.27573 -6.971469,0 0,-11.20388 z" />
      <path
         inkscape:connector-curvature="0"
         id="path3634"
         d="m 91.747563,201.67666 1.515863,0 0,11.20388 -1.515863,0 0,-11.20388 z" />
      <path
         inkscape:connector-curvature="0"
         id="path3636"
         d="m 107.02428,202.04437 0,1.47834 q -0.86299,-0.41273 -1.62843,-0.61535 -0.76543,-0.20261 -1.47834,-0.20261 -1.2382,0 -1.91359,0.48027 -0.66788,0.48027 -0.66788,1.36578 0,0.74292 0.44275,1.12564 0.45026,0.37521 1.69597,0.60784 l 0.91552,0.18761 q 1.69597,0.32268 2.49892,1.14065 0.81047,0.81046 0.81047,2.17624 0,1.62843 -1.09563,2.4689 -1.08812,0.84048 -3.19682,0.84048 -0.79545,0 -1.69596,-0.1801 -0.89301,-0.1801 -1.853559,-0.5328 l 0,-1.56089 q 0.923029,0.51779 1.808529,0.78044 0.8855,0.26265 1.74099,0.26265 1.29824,0 2.00364,-0.51029 0.7054,-0.51029 0.7054,-1.45583 0,-0.82547 -0.51029,-1.29073 -0.50278,-0.46527 -1.65844,-0.6979 l -0.92303,-0.1801 q -1.69596,-0.33769 -2.45389,-1.0581 -0.757935,-0.72041 -0.757935,-2.00364 0,-1.48585 1.043095,-2.34134 1.0506,-0.85548 2.88914,-0.85548 0.78795,0 1.60592,0.14258 0.81796,0.14258 1.67345,0.42774 z" />
      <path
         inkscape:connector-curvature="0"
         id="path3638"
         d="m 113.78635,201.67666 1.51586,0 0,11.20388 -1.51586,0 0,-11.20388 z" />
      <path
         inkscape:connector-curvature="0"
         id="path3640"
         d="m 129.06306,202.04437 0,1.47834 q -0.86299,-0.41273 -1.62843,-0.61535 -0.76543,-0.20261 -1.47834,-0.20261 -1.2382,0 -1.91359,0.48027 -0.66788,0.48027 -0.66788,1.36578 0,0.74292 0.44275,1.12564 0.45026,0.37521 1.69597,0.60784 l 0.91552,0.18761 q 1.69597,0.32268 2.49892,1.14065 0.81047,0.81046 0.81047,2.17624 0,1.62843 -1.09563,2.4689 -1.08812,0.84048 -3.19682,0.84048 -0.79545,0 -1.69596,-0.1801 -0.89301,-0.1801 -1.85356,-0.5328 l 0,-1.56089 q 0.92303,0.51779 1.80853,0.78044 0.88551,0.26265 1.74099,0.26265 1.29824,0 2.00364,-0.51029 0.7054,-0.51029 0.7054,-1.45583 0,-0.82547 -0.51029,-1.29073 -0.50278,-0.46527 -1.65844,-0.6979 l -0.92303,-0.1801 q -1.69596,-0.33769 -2.45389,-1.0581 -0.75793,-0.72041 -0.75793,-2.00364 0,-1.48585 1.04309,-2.34134 1.0506,-0.85548 2.88914,-0.85548 0.78795,0 1.60592,0.14258 0.81796,0.14258 1.67345,0.42774 z" />
      <path
         inkscape:connector-curvature="0"
         id="path3642"
         d="m -176.8731,221.36487 0,8.71246 1.83104,0 q 2.31882,0 3.39193,-1.05059 1.08062,-1.0506 1.08062,-3.31689 0,-2.25128 -1.08062,-3.29438 -1.07311,-1.0506 -3.39193,-1.0506 l -1.83104,0 z m -1.51586,-1.2457 3.11427,0 q 3.25685,0 4.78022,1.35827 1.52337,1.35077 1.52337,4.23241 0,2.89665 -1.53087,4.25492 -1.53088,1.35827 -4.77272,1.35827 l -3.11427,0 0,-11.20387 z" />
      <path
         inkscape:connector-curvature="0"
         id="path3644"
         d="m -163.89623,220.11917 7.08403,0 0,1.27572 -5.56817,0 0,3.31689 5.33554,0 0,1.27573 -5.33554,0 0,4.05981 5.70325,0 0,1.27572 -7.21911,0 0,-11.20387 z" />
      <path
         inkscape:connector-curvature="0"
         id="path3646"
         d="m -142.11872,220.11917 1.51587,0 0,11.20387 -1.51587,0 0,-11.20387 z" />
      <path
         inkscape:connector-curvature="0"
         id="path3648"
         d="m -133.55832,220.11917 2.25878,0 2.85913,7.62434 2.87414,-7.62434 2.25878,0 0,11.20387 -1.47834,0 0,-9.8381 -2.88914,7.68438 -1.52337,0 -2.88914,-7.68438 0,9.8381 -1.47084,0 0,-11.20387 z" />
      <path
         inkscape:connector-curvature="0"
         id="path3650"
         d="m -113.32302,221.61252 -2.05617,5.57567 4.11984,0 -2.06367,-5.57567 z m -0.85549,-1.49335 1.71848,0 4.26993,11.20387 -1.5759,0 -1.02058,-2.87413 -5.05037,0 -1.02058,2.87413 -1.59841,0 4.27743,-11.20387 z m 1.26822,-3.04674 1.38829,0 -1.71097,1.98113 -1.14815,0 1.47083,-1.98113 z" />
      <path
         inkscape:connector-curvature="0"
         id="path3652"
         d="m -94.628194,229.72463 0,-3.00921 -2.47641,0 0,-1.24571 3.977265,0 0,4.81024 q -0.878,0.62285 -1.936103,0.94554 -1.058102,0.31518 -2.258786,0.31518 -2.626495,0 -4.112342,-1.53087 -1.47834,-1.53838 -1.47834,-4.27744 0,-2.74656 1.47834,-4.27743 1.485847,-1.53838 4.112342,-1.53838 1.095624,0 2.078684,0.27015 0.990564,0.27016 1.823538,0.79546 l 0,1.61342 q -0.840479,-0.71291 -1.786017,-1.07312 -0.945538,-0.3602 -1.988632,-0.3602 -2.056171,0 -3.091765,1.14815 -1.02808,1.14816 -1.02808,3.42195 0,2.26629 1.02808,3.41444 1.035594,1.14816 3.091765,1.14816 0.802957,0 1.433316,-0.13508 0.630359,-0.14258 1.133145,-0.43525 z" />
      <path
         inkscape:connector-curvature="0"
         id="path3654"
         d="m -87.759441,220.11917 7.084033,0 0,1.27572 -5.56817,0 0,3.31689 5.335538,0 0,1.27573 -5.335538,0 0,4.05981 5.703247,0 0,1.27572 -7.21911,0 0,-11.20387 z" />
      <path
         inkscape:connector-curvature="0"
         id="path3656"
         d="m -74.357898,220.11917 2.041162,0 4.967828,9.37283 0,-9.37283 1.470838,0 0,11.20387 -2.041162,0 -4.967829,-9.37283 0,9.37283 -1.470837,0 0,-11.20387 z" />
      <path
         inkscape:connector-curvature="0"
         id="path3658"
         d="m -59.404102,220.11917 7.084033,0 0,1.27572 -5.56817,0 0,3.31689 5.335538,0 0,1.27573 -5.335538,0 0,4.05981 5.703247,0 0,1.27572 -7.21911,0 0,-11.20387 z" />
      <path
         inkscape:connector-curvature="0"
         id="path3660"
         d="m -39.286231,220.48687 0,1.47835 q -0.862992,-0.41274 -1.628428,-0.61535 -0.765435,-0.20262 -1.478341,-0.20262 -1.238205,0 -1.91359,0.48027 -0.66788,0.48028 -0.66788,1.36578 0,0.74292 0.442752,1.12564 0.450257,0.37522 1.695966,0.60785 l 0.915521,0.18761 q 1.695966,0.32268 2.498923,1.14064 0.810461,0.81047 0.810461,2.17624 0,1.62843 -1.095624,2.46891 -1.088119,0.84048 -3.19682,0.84048 -0.795453,0 -1.695965,-0.1801 -0.893009,-0.18011 -1.853555,-0.53281 l 0,-1.56089 q 0.923025,0.5178 1.808529,0.78045 0.885504,0.26265 1.740991,0.26265 1.298239,0 2.003641,-0.51029 0.705402,-0.51029 0.705402,-1.45583 0,-0.82547 -0.510291,-1.29074 -0.502786,-0.46526 -1.658444,-0.69789 l -0.923026,-0.18011 q -1.695965,-0.33769 -2.453897,-1.0581 -0.757931,-0.72041 -0.757931,-2.00364 0,-1.48585 1.043094,-2.34133 1.050598,-0.85549 2.889145,-0.85549 0.787948,0 1.605914,0.14258 0.817966,0.14258 1.673453,0.42774 z" />
      <path
         inkscape:connector-curvature="0"
         id="path3662"
         d="m -24.148191,220.11917 2.258786,0 2.859128,7.62434 2.874136,-7.62434 2.258786,0 0,11.20387 -1.478341,0 0,-9.8381 -2.889145,7.68438 -1.523368,0 -2.889144,-7.68438 0,9.8381 -1.470838,0 0,-11.20387 z" />
      <path
         inkscape:connector-curvature="0"
         id="path3664"
         d="m -7.6575119,220.11917 7.08403299,0 0,1.27572 -5.56816999,0 0,3.31689 5.33553755,0 0,1.27573 -5.33553755,0 0,4.05981 5.70324689,0 0,1.27572 -7.21910989,0 0,-11.20387 z m 3.9322386,-3.04674 1.3882904,0 -1.7109741,1.98113 -1.1481536,0 1.4708373,-1.98113 z" />
      <path
         inkscape:connector-curvature="0"
         id="path3666"
         d="m 7.2598975,221.36487 0,8.71246 1.8310425,0 q 2.31882,0 3.391931,-1.05059 1.080615,-1.0506 1.080615,-3.31689 0,-2.25128 -1.080615,-3.29438 -1.073111,-1.0506 -3.391931,-1.0506 l -1.8310425,0 z m -1.515863,-1.2457 3.114273,0 q 3.2568545,0 4.7802215,1.35827 1.523367,1.35077 1.523367,4.23241 0,2.89665 -1.530871,4.25492 -1.530872,1.35827 -4.7727175,1.35827 l -3.114273,0 0,-11.20387 z" />
      <path
         inkscape:connector-curvature="0"
         id="path3668"
         d="m 20.236756,220.11917 1.515863,0 0,11.20387 -1.515863,0 0,-11.20387 z" />
      <path
         inkscape:connector-curvature="0"
         id="path3670"
         d="m 37.186942,220.98216 0,1.59841 q -0.765436,-0.71291 -1.635931,-1.06561 -0.862992,-0.3527 -1.838547,-0.3527 -1.921094,0 -2.941675,1.17817 -1.020581,1.17067 -1.020581,3.39193 0,2.21376 1.020581,3.39193 1.020581,1.17067 2.941675,1.17067 0.975555,0 1.838547,-0.3527 0.870495,-0.3527 1.635931,-1.06561 l 0,1.5834 q -0.795453,0.54031 -1.688461,0.81046 -0.885504,0.27016 -1.876068,0.27016 -2.543949,0 -4.007282,-1.55339 -1.463333,-1.56089 -1.463333,-4.25492 0,-2.70154 1.463333,-4.25492 1.463333,-1.56089 4.007282,-1.56089 1.005572,0 1.891076,0.27015 0.893009,0.26265 1.673453,0.79546 z" />
      <path
         inkscape:connector-curvature="0"
         id="path3672"
         d="m 46.573456,221.61252 -2.056171,5.57567 4.119846,0 -2.063675,-5.57567 z m -0.855487,-1.49335 1.718478,0 4.269931,11.20387 -1.575897,0 -1.020581,-2.87413 -5.050376,0 -1.020581,2.87413 -1.59841,0 4.277436,-11.20387 z" />
      <path
         inkscape:connector-curvature="0"
         id="path3674"
         d="m 64.345257,220.48687 0,1.47835 q -0.862991,-0.41274 -1.628427,-0.61535 -0.765435,-0.20262 -1.478341,-0.20262 -1.238205,0 -1.91359,0.48027 -0.66788,0.48028 -0.66788,1.36578 0,0.74292 0.442752,1.12564 0.450256,0.37522 1.695966,0.60785 l 0.915521,0.18761 q 1.695965,0.32268 2.498922,1.14064 0.810462,0.81047 0.810462,2.17624 0,1.62843 -1.095624,2.46891 -1.088119,0.84048 -3.19682,0.84048 -0.795453,0 -1.695965,-0.1801 -0.893009,-0.18011 -1.853556,-0.53281 l 0,-1.56089 q 0.923026,0.5178 1.80853,0.78045 0.885504,0.26265 1.740991,0.26265 1.298239,0 2.003641,-0.51029 0.705401,-0.51029 0.705401,-1.45583 0,-0.82547 -0.51029,-1.29074 -0.502786,-0.46526 -1.658444,-0.69789 l -0.923026,-0.18011 q -1.695965,-0.33769 -2.453897,-1.0581 -0.757931,-0.72041 -0.757931,-2.00364 0,-1.48585 1.043094,-2.34133 1.050598,-0.85549 2.889144,-0.85549 0.787949,0 1.605915,0.14258 0.817965,0.14258 1.673452,0.42774 z" />
    </g>
  </g>
</svg>
